# xmcd
#
# Track frame offsets:
# 150
# 27997
# 96405
# 153324
# 189788
# 224943
# 251352
#
# Disc length: 3734 seconds
#
#
# Revision: 0
# Processed by: cddbd v1.5.2PL0 Copyright (c) Steve Scherf et al.
# Submitted via: FreeRIP 2.96 
#
DISCID=5c0e9407
DTITLE=Sandra Brown - Ewige Treue CD1v6
DYEAR=2010
DGENRE=Speech
TTITLE0=01 Ewige Treue
TTITLE1=02 Ewige Treue
TTITLE2=03 Ewige Treue
TTITLE3=04 Ewige Treue
TTITLE4=05 Ewige Treue
TTITLE5=06 Ewige Treue
TTITLE6=07 Ewige Treue
EXTD=gelesen von Hansi Jochmann
EXTT0=
EXTT1=
EXTT2=
EXTT3=
EXTT4=
EXTT5=
EXTT6=
PLAYORDER=
